<svg xmlns="http://www.w3.org/2000/svg" viewBox="0 0 94 89" class="ddbc-svg "><path fill="#FEFEFE" d="M87.54,9.45a42.28,42.28,0,0,1-3-3A42.91,42.91,0,0,0,74.21,1H18.36a11,11,0,0,0-1.53.59A4.9,4.9,0,0,1,15.36,2.7,21.09,21.09,0,0,0,6,12.28a5.14,5.14,0,0,1,.12,1.59,5.15,5.15,0,0,1,.24,1.18c1,12.72.57,25.84.4,38.59-.09,6.5,0,13-.05,19.48,0,2-.11,4.08-.22,6.12a17.93,17.93,0,0,0,2.78,2.94A73.22,73.22,0,0,0,16.51,87H78l.07-.06a32.31,32.31,0,0,0,9.31-8.5c.13-6,.65-12,.36-18s.2-11.89.36-17.9c.16-6.53,0-13.11-.17-19.64C87.84,18.57,88.07,13.86,87.54,9.45Z"></path><path fill="#C53131" d="M85,0H9L0,9.05V80l9,9H85l9-9V9.05Zm6.55,10.08v7a29.26,29.26,0,0,0-3.24-6.78v-.13h-.08a20.45,20.45,0,0,0-9.13-7.69H84ZM75.6,86.52H18.36a19,19,0,0,1-11.3-7.73V10.25A19.27,19.27,0,0,1,18.4,2.48H75.64a18.94,18.94,0,0,1,11.3,7.73V78.75A19.27,19.27,0,0,1,75.6,86.52ZM2.47,21.18a31.7,31.7,0,0,1,3.24-8.8V76.64c-.3-.53-.62-1-.89-1.62a32.92,32.92,0,0,1-2.35-7.11Zm85.82-8.82c.3.53.62,1,.89,1.62a32.92,32.92,0,0,1,2.35,7.11V67.81a31.64,31.64,0,0,1-3.24,8.81ZM10.05,2.48h4.87a20.45,20.45,0,0,0-9.13,7.69H5.71v.13a29.26,29.26,0,0,0-3.24,6.78v-7ZM2.47,78.92v-7A29.45,29.45,0,0,0,5.71,78.7v.13h.08a20.45,20.45,0,0,0,9.13,7.69H10.05ZM84,86.52H79.08a20.45,20.45,0,0,0,9.13-7.69h.08V78.7a29.45,29.45,0,0,0,3.24-6.78v7Z"></path></svg>